<svg width="24" height="23" viewBox="0 0 24 23" fill="none" xmlns="http://www.w3.org/2000/svg">
<path fill-rule="evenodd" clip-rule="evenodd" d="M14.2001 1.09095C14.1999 0.863445 14.2707 0.641573 14.4026 0.456379C14.5345 0.271185 14.7208 0.131938 14.9356 0.0581227C15.1504 -0.0156922 15.3829 -0.0203804 15.6004 0.0447144C15.818 0.109809 16.0098 0.241429 16.149 0.421155L23.7706 10.2389C23.9193 10.4304 24 10.6661 24 10.9087C24 11.1513 23.9193 11.387 23.7706 11.5785L16.149 21.3963C16.0098 21.576 15.818 21.7077 15.6004 21.7728C15.3829 21.8378 15.1504 21.8332 14.9356 21.7593C14.7208 21.6855 14.5345 21.5463 14.4026 21.3611C14.2707 21.1759 14.1999 20.954 14.2001 20.7265V16.374C8.34349 16.4961 5.53005 17.6099 4.1168 18.8208C2.77323 19.9716 2.52716 21.3254 2.2713 22.7435L2.20488 23.109C2.15602 23.3705 2.01347 23.605 1.80405 23.7686C1.59463 23.9322 1.33278 24.0134 1.06775 23.997C0.802728 23.9807 0.552802 23.8679 0.364995 23.6798C0.177188 23.4917 0.0644488 23.2414 0.0479835 22.9759C-0.1382 19.9782 0.141618 15.6344 2.25496 12.0007C4.30625 8.47392 8.00052 5.76203 14.2001 5.47841V1.09095Z" fill="#389CEB"/>
</svg>
