<svg width="100" height="38" viewBox="0 0 100 38" fill="none" xmlns="http://www.w3.org/2000/svg">
<path d="M12.6055 16.9633C12.6055 15.3033 12.9487 13.8268 13.6351 12.5339C14.3374 11.225 15.327 10.2115 16.6039 9.4932C17.8809 8.75896 19.3493 8.39185 21.0094 8.39185C23.1163 8.39185 24.8881 8.95849 26.3246 10.0918C27.7612 11.2091 28.6869 12.7334 29.1019 14.6648H24.0501C23.7468 14.0263 23.3238 13.5395 22.7811 13.2043C22.2544 12.8691 21.6398 12.7015 20.9375 12.7015C19.8521 12.7015 18.9822 13.0926 18.3278 13.8747C17.6893 14.6408 17.3701 15.6704 17.3701 16.9633C17.3701 18.2721 17.6893 19.3176 18.3278 20.0997C18.9822 20.8659 19.8521 21.249 20.9375 21.249C21.6398 21.249 22.2544 21.0814 22.7811 20.7462C23.3238 20.411 23.7468 19.9242 24.0501 19.2857H29.1019C28.6869 21.2171 27.7612 22.7494 26.3246 23.8827C24.8881 25 23.1163 25.5586 21.0094 25.5586C19.3493 25.5586 17.8809 25.1995 16.6039 24.4812C15.327 23.747 14.3374 22.7334 13.6351 21.4405C12.9487 20.1317 12.6055 18.6393 12.6055 16.9633Z" fill="#389CEB"/>
<path d="M30.5579 18.7111C30.5579 17.3224 30.8053 16.1093 31.3002 15.0718C31.8109 14.0343 32.4973 13.2362 33.3592 12.6776C34.2371 12.1189 35.2108 11.8396 36.2802 11.8396C37.206 11.8396 38.0041 12.0231 38.6745 12.3902C39.3449 12.7574 39.8636 13.2522 40.2307 13.8747V12.0072H44.9235V25.4389H40.2307V23.5714C39.8636 24.1939 39.3369 24.6887 38.6505 25.0559C37.9801 25.423 37.19 25.6065 36.2802 25.6065C35.2108 25.6065 34.2371 25.3272 33.3592 24.7685C32.4973 24.2099 31.8109 23.4118 31.3002 22.3743C30.8053 21.3208 30.5579 20.0997 30.5579 18.7111ZM40.2307 18.7111C40.2307 17.8491 39.9913 17.1708 39.5125 16.676C39.0496 16.1812 38.4749 15.9337 37.7886 15.9337C37.0863 15.9337 36.5037 16.1812 36.0408 16.676C35.5779 17.1548 35.3464 17.8332 35.3464 18.7111C35.3464 19.573 35.5779 20.2594 36.0408 20.7701C36.5037 21.2649 37.0863 21.5124 37.7886 21.5124C38.4749 21.5124 39.0496 21.2649 39.5125 20.7701C39.9913 20.2753 40.2307 19.589 40.2307 18.7111Z" fill="#389CEB"/>
<path d="M53.3198 25.6065C52.1067 25.6065 51.0213 25.407 50.0636 25.008C49.1219 24.593 48.3717 24.0343 47.813 23.332C47.2703 22.6137 46.9671 21.8076 46.9032 20.9138H51.4523C51.5161 21.3448 51.7157 21.68 52.0509 21.9194C52.3861 22.1588 52.8011 22.2785 53.2959 22.2785C53.679 22.2785 53.9822 22.1987 54.2057 22.0391C54.4292 21.8795 54.5409 21.672 54.5409 21.4166C54.5409 21.0814 54.3573 20.834 53.9902 20.6744C53.6231 20.5148 53.0165 20.3392 52.1706 20.1476C51.2129 19.9561 50.4148 19.7406 49.7763 19.5012C49.1379 19.2618 48.5792 18.8707 48.1003 18.328C47.6375 17.7853 47.406 17.0511 47.406 16.1253C47.406 15.3272 47.6215 14.6089 48.0525 13.9705C48.4834 13.316 49.1139 12.7973 49.9439 12.4142C50.7899 12.0311 51.8035 11.8396 52.9846 11.8396C54.7404 11.8396 56.1211 12.2705 57.1267 13.1325C58.1323 13.9944 58.7149 15.1277 58.8745 16.5323H54.6367C54.5568 16.1013 54.3653 15.7741 54.062 15.5507C53.7747 15.3112 53.3837 15.1915 52.8888 15.1915C52.5058 15.1915 52.2105 15.2634 52.003 15.407C51.8114 15.5507 51.7157 15.7502 51.7157 16.0056C51.7157 16.3248 51.8992 16.5722 52.2663 16.7478C52.6335 16.9074 53.224 17.075 54.0381 17.2506C55.0118 17.4581 55.8178 17.6895 56.4563 17.9449C57.1107 18.2003 57.6774 18.6153 58.1562 19.1899C58.651 19.7486 58.8984 20.5147 58.8984 21.4884C58.8984 22.2705 58.667 22.9729 58.2041 23.5954C57.7572 24.2179 57.1107 24.7127 56.2647 25.0798C55.4347 25.431 54.4531 25.6065 53.3198 25.6065Z" fill="#389CEB"/>
<path d="M60.4394 18.7111C60.4394 17.3224 60.6868 16.1093 61.1816 15.0718C61.6923 14.0343 62.3787 13.2362 63.2406 12.6776C64.1185 12.1189 65.0922 11.8396 66.1616 11.8396C67.0874 11.8396 67.8855 12.0231 68.5559 12.3902C69.2263 12.7574 69.745 13.2522 70.1121 13.8747V12.0072H74.8049V25.4389H70.1121V23.5714C69.745 24.1939 69.2183 24.6887 68.5319 25.0559C67.8615 25.423 67.0714 25.6065 66.1616 25.6065C65.0922 25.6065 64.1185 25.3272 63.2406 24.7685C62.3787 24.2099 61.6923 23.4118 61.1816 22.3743C60.6868 21.3208 60.4394 20.0997 60.4394 18.7111ZM70.1121 18.7111C70.1121 17.8491 69.8727 17.1708 69.3939 16.676C68.931 16.1812 68.3564 15.9337 67.67 15.9337C66.9677 15.9337 66.3851 16.1812 65.9222 16.676C65.4593 17.1548 65.2279 17.8332 65.2279 18.7111C65.2279 19.573 65.4593 20.2594 65.9222 20.7701C66.3851 21.2649 66.9677 21.5124 67.67 21.5124C68.3564 21.5124 68.931 21.2649 69.3939 20.7701C69.8727 20.2753 70.1121 19.589 70.1121 18.7111Z" fill="#389CEB"/>
<path d="M83.2012 25.6065C81.9881 25.6065 80.9027 25.407 79.945 25.008C79.0033 24.593 78.2531 24.0343 77.6944 23.332C77.1517 22.6137 76.8485 21.8076 76.7846 20.9138H81.3337C81.3976 21.3448 81.5971 21.68 81.9323 21.9194C82.2675 22.1588 82.6825 22.2785 83.1773 22.2785C83.5604 22.2785 83.8636 22.1987 84.0871 22.0391C84.3106 21.8795 84.4223 21.672 84.4223 21.4166C84.4223 21.0814 84.2387 20.834 83.8716 20.6744C83.5045 20.5148 82.8979 20.3392 82.052 20.1476C81.0943 19.9561 80.2962 19.7406 79.6577 19.5012C79.0193 19.2618 78.4606 18.8707 77.9818 18.328C77.5189 17.7853 77.2874 17.0511 77.2874 16.1253C77.2874 15.3272 77.5029 14.6089 77.9339 13.9705C78.3648 13.316 78.9953 12.7973 79.8253 12.4142C80.6713 12.0311 81.6849 11.8396 82.866 11.8396C84.6218 11.8396 86.0025 12.2705 87.0081 13.1325C88.0137 13.9944 88.5963 15.1277 88.7559 16.5323H84.5181C84.4383 16.1013 84.2467 15.7741 83.9434 15.5507C83.6561 15.3112 83.2651 15.1915 82.7703 15.1915C82.3872 15.1915 82.0919 15.2634 81.8844 15.407C81.6928 15.5507 81.5971 15.7502 81.5971 16.0056C81.5971 16.3248 81.7806 16.5722 82.1478 16.7478C82.5149 16.9074 83.1055 17.075 83.9195 17.2506C84.8932 17.4581 85.6992 17.6895 86.3377 17.9449C86.9921 18.2003 87.5588 18.6153 88.0376 19.1899C88.5324 19.7486 88.7798 20.5147 88.7798 21.4884C88.7798 22.2705 88.5484 22.9729 88.0855 23.5954C87.6386 24.2179 86.9921 24.7127 86.1462 25.0798C85.3161 25.431 84.3345 25.6065 83.2012 25.6065Z" fill="#389CEB"/>
<path d="M100 7.9875H94.6608V13.3746H93.1046V7.9875H87.7893V6.55095H93.1046V1.16388H94.6608V6.55095H100V7.9875Z" fill="#1A486B"/>
<path d="M77.7242 33.34H75.0546V36.0335H74.2764V33.34H71.6188V32.6217H74.2764V29.9282H75.0546V32.6217H77.7242V33.34Z" fill="#2C7BB8"/>
<path d="M13.2123 3.41181H10.5427V6.10535H9.76462V3.41181H7.10699V2.69354H9.76462V0H10.5427V2.69354H13.2123V3.41181Z" fill="#3A566B"/>
<path d="M12.2107 31.93H6.87151V37.3171H5.31524V31.93H0V30.4935H5.31524V25.1064H6.87151V30.4935H12.2107V31.93Z" fill="#81BFEE"/>
</svg>
