<svg width="20" height="20" viewBox="0 0 20 20" fill="none" xmlns="http://www.w3.org/2000/svg">
<path d="M10.72 8.80002C10.24 8.68002 9.76002 8.44002 9.40002 8.08002C9.04002 7.96002 8.92002 7.60002 8.92002 7.36002C8.92002 7.12002 9.04002 6.76002 9.28002 6.64002C9.64002 6.40002 10 6.16002 10.36 6.28002C11.08 6.28002 11.68 6.64002 12.04 7.12002L13.12 5.68002C12.76 5.32002 12.4 5.08002 12.04 4.84002C11.68 4.60002 11.2 4.48002 10.72 4.48002V2.80002H9.28002V4.48002C8.68002 4.60002 8.08002 4.96002 7.60002 5.44002C7.12002 6.04002 6.76002 6.76002 6.88002 7.48002C6.88002 8.20002 7.12002 8.92002 7.60002 9.40002C8.20002 10 9.04002 10.36 9.76002 10.72C10.12 10.84 10.6 11.08 10.96 11.32C11.2 11.56 11.32 11.92 11.32 12.28C11.32 12.64 11.2 13 10.96 13.36C10.6 13.72 10.12 13.84 9.76002 13.84C9.28002 13.84 8.68002 13.72 8.32002 13.36C7.96002 13.12 7.60002 12.76 7.36002 12.4L6.16002 13.72C6.52002 14.2 6.88002 14.56 7.36002 14.92C7.96002 15.28 8.68002 15.64 9.40002 15.64V17.2H10.72V15.4C11.44 15.28 12.04 14.92 12.52 14.44C13.12 13.84 13.48 12.88 13.48 12.04C13.48 11.32 13.24 10.48 12.64 10C12.04 9.40002 11.44 9.04002 10.72 8.80002ZM10 0.400024C4.72002 0.400024 0.400024 4.72002 0.400024 10C0.400024 15.28 4.72002 19.6 10 19.6C15.28 19.6 19.6 15.28 19.6 10C19.6 4.72002 15.28 0.400024 10 0.400024ZM10 18.28C5.44002 18.28 1.72002 14.56 1.72002 10C1.72002 5.44002 5.44002 1.72002 10 1.72002C14.56 1.72002 18.28 5.44002 18.28 10C18.28 14.56 14.56 18.28 10 18.28Z" fill="#389CEB"/>
</svg>
